<svg width="50" height="50" viewBox="0 0 50 50" fill="none" xmlns="http://www.w3.org/2000/svg">
<path d="M19.7917 34.375L34.375 25L19.7917 15.625V34.375ZM25 45.8333C22.118 45.8333 19.4097 45.2861 16.875 44.1916C14.3403 43.0972 12.1354 41.6132 10.2604 39.7395C8.38541 37.8645 6.90138 35.6597 5.80832 33.125C4.71527 30.5902 4.16805 27.8819 4.16666 25C4.16666 22.118 4.71388 19.4097 5.80832 16.875C6.90277 14.3402 8.3868 12.1354 10.2604 10.2604C12.1354 8.38538 14.3403 6.90135 16.875 5.80829C19.4097 4.71524 22.118 4.16801 25 4.16663C27.8819 4.16663 30.5903 4.71385 33.125 5.80829C35.6597 6.90274 37.8646 8.38677 39.7396 10.2604C41.6146 12.1354 43.0993 14.3402 44.1937 16.875C45.2882 19.4097 45.8347 22.118 45.8333 25C45.8333 27.8819 45.2861 30.5902 44.1917 33.125C43.0972 35.6597 41.6132 37.8645 39.7396 39.7395C37.8646 41.6145 35.6597 43.0993 33.125 44.1937C30.5903 45.2882 27.8819 45.8347 25 45.8333Z" fill="#BDBDBD" fill-opacity="0.87"/>
</svg>
